<?xml version="1.0" standalone="no"?><!DOCTYPE svg PUBLIC "-//W3C//DTD SVG 1.1//EN" "http://www.w3.org/Graphics/SVG/1.1/DTD/svg11.dtd"><svg t="1584948080257" class="icon" viewBox="0 0 1073 1024" version="1.1" xmlns="http://www.w3.org/2000/svg" p-id="1160" xmlns:xlink="http://www.w3.org/1999/xlink" width="209.5703125" height="200"><defs><style type="text/css"></style></defs><path d="M552.96 823.428129l265.694968 139.676903a8.538839 8.538839 0 0 0 12.387097-9.00129l-50.737549-295.853419a42.694194 42.694194 0 0 1 12.271484-37.788904l214.957419-209.523613a8.538839 8.538839 0 0 0-4.740129-14.550709l-297.04258-43.173162a42.694194 42.694194 0 0 1-32.140387-23.353806L540.738065 60.696774a8.538839 8.538839 0 0 0-15.310452 0l-132.839226 269.163355a42.694194 42.694194 0 0 1-32.140387 23.353806L63.405419 396.387097a8.538839 8.538839 0 0 0-4.723613 14.550709l214.940904 209.523613c10.074839 9.810581 14.649806 23.948387 12.288 37.788904l-50.754065 295.853419a8.538839 8.538839 0 0 0 12.387097 9.00129l265.694968-139.676903a42.694194 42.694194 0 0 1 39.737806 0zM273.077677 1010.126452a59.755355 59.755355 0 0 1-86.709677-62.992517L236.32929 655.690323 24.609032 449.32129a59.755355 59.755355 0 0 1 33.131355-101.937548l292.599742-42.529032 130.873806-265.149936a59.755355 59.755355 0 0 1 107.173162 0l130.85729 265.149936 292.616258 42.529032a59.755355 59.755355 0 0 1 33.114839 101.937548L833.222194 655.690323l49.994322 291.427096a59.755355 59.755355 0 0 1-86.709677 62.992516l-261.731097-137.579354-261.714581 137.579354z m-35.972129-342.329807a8.538839 8.538839 0 0 0 2.460904 7.547871l-3.220646-3.138064 0.759742-4.409807z" fill="#0069F6" p-id="1161"></path><path d="M537.89729 677.442065a24.774194 24.774194 0 0 1-29.150967-4.360259l-105.108646-105.108645a24.774194 24.774194 0 0 1 35.047226-35.030709l92.837162 92.837161 189.109677-189.109678a24.774194 24.774194 0 0 1 35.03071 35.047226l-198.523871 198.523871c-5.285161 5.285161-12.337548 7.68-19.241291 7.201033z" fill="#5ED7BC" p-id="1162"></path></svg>