<?xml version="1.0" encoding="utf-8"?>
<!-- Generator: Adobe Illustrator 16.0.0, SVG Export Plug-In . SVG Version: 6.00 Build 0)  -->
<!DOCTYPE svg PUBLIC "-//W3C//DTD SVG 1.1//EN" "http://www.w3.org/Graphics/SVG/1.1/DTD/svg11.dtd">
<svg version="1.1" id="春分" xmlns="http://www.w3.org/2000/svg" xmlns:xlink="http://www.w3.org/1999/xlink" x="0px" y="0px"
	 width="200.014px" height="200.012px" viewBox="0 235.488 200.014 200.012" enable-background="new 0 235.488 200.014 200.012"
	 xml:space="preserve">
<g>
	<g>
		<path fill="#847C79" d="M84.848,345.92c0,0-7.144,68.344-3.941,86.566h12.801c0,0-3.625-81.51-3.154-86.566H84.848z"/>
		<line fill="#847C79" x1="83.515" y1="359.793" x2="90.985" y2="359.764"/>
		<line fill="#847C79" x1="81.557" y1="385.805" x2="91.741" y2="385.777"/>
		<line fill="#847C79" x1="80.081" y1="411.59" x2="92.802" y2="411.561"/>
	</g>
	<g>
		<path fill="none" stroke="#60534D" stroke-width="0.5697" stroke-miterlimit="10" d="M84.848,345.92
			c0,0-7.144,68.344-3.941,86.566h12.801c0,0-3.625-81.51-3.154-86.566H84.848z"/>
		
			<line fill="none" stroke="#60534D" stroke-width="0.5605" stroke-miterlimit="10" x1="83.515" y1="359.793" x2="90.985" y2="359.764"/>
		
			<line fill="none" stroke="#60534D" stroke-width="0.5697" stroke-miterlimit="10" x1="81.557" y1="385.805" x2="91.741" y2="385.777"/>
		
			<line fill="none" stroke="#60534D" stroke-width="0.5697" stroke-miterlimit="10" x1="80.081" y1="411.59" x2="92.802" y2="411.561"/>
	</g>
</g>
<g>
	<g>
		<path fill="#847C79" d="M111.153,345.756c0,0,10.669,67.883,8.414,86.246l-12.784,0.662c0,0-0.598-81.59-1.329-86.613
			L111.153,345.756z"/>
		<line fill="#847C79" x1="113.201" y1="359.541" x2="105.781" y2="359.895"/>
		<line fill="#847C79" x1="116.502" y1="385.418" x2="106.331" y2="385.916"/>
		<line fill="#847C79" x1="119.309" y1="411.09" x2="106.607" y2="411.719"/>
	</g>
	<g>
		<path fill="none" stroke="#60534D" stroke-width="0.5697" stroke-miterlimit="10" d="M111.056,345.756
			c0,0,10.67,67.883,8.415,86.246l-12.784,0.662c0,0-0.598-81.59-1.329-86.613L111.056,345.756z"/>
		
			<line fill="none" stroke="#60534D" stroke-width="0.5697" stroke-miterlimit="10" x1="113.105" y1="359.541" x2="105.781" y2="359.91"/>
		
			<line fill="none" stroke="#60534D" stroke-width="0.5697" stroke-miterlimit="10" x1="116.406" y1="385.418" x2="106.235" y2="385.916"/>
		
			<line fill="none" stroke="#60534D" stroke-width="0.5697" stroke-miterlimit="10" x1="119.215" y1="411.09" x2="106.51" y2="411.719"/>
	</g>
</g>
<g>
	<g>
		<g>
			<path fill="#847C79" d="M74.386,290.107c0,0-11.177,122.982-0.206,140.117l15.336-2.406c0,0-12.498-133.742-9.834-137.398
				L74.386,290.107z"/>
			<line fill="#847C79" x1="72.397" y1="315.309" x2="80.149" y2="314.301"/>
		</g>
		<line fill="#847C79" x1="70.59" y1="344.807" x2="82.27" y2="343.934"/>
		<line fill="#847C79" x1="69.419" y1="378.83" x2="85.091" y2="378.205"/>
		<line fill="#847C79" x1="70.82" y1="417.902" x2="88.317" y2="414.754"/>
	</g>
	<g>
		<g>
			<path fill="none" stroke="#60534D" stroke-width="0.5697" stroke-miterlimit="10" d="M74.263,290.178
				c0,0-11.177,122.982-0.206,140.117l15.337-2.404c0,0-12.499-133.744-9.834-137.4L74.263,290.178z"/>
			
				<line fill="none" stroke="#60534D" stroke-width="0.5697" stroke-miterlimit="10" x1="72.274" y1="315.379" x2="80.026" y2="314.371"/>
		</g>
		
			<line fill="none" stroke="#60534D" stroke-width="0.5697" stroke-miterlimit="10" x1="70.467" y1="344.877" x2="82.147" y2="344.004"/>
		
			<line fill="none" stroke="#60534D" stroke-width="0.5697" stroke-miterlimit="10" x1="69.296" y1="378.9" x2="84.968" y2="378.275"/>
		
			<line fill="none" stroke="#60534D" stroke-width="0.5697" stroke-miterlimit="10" x1="70.698" y1="417.973" x2="88.194" y2="414.824"/>
	</g>
</g>
<g>
	<path fill="#847C79" d="M110.894,347.629c-2.038,0-23.888,0.215-25.739,0c-1.853-0.217-4.975-12.018-2.928-12.682
		c2.047-0.666,29.851-0.65,31.317,0C115.013,335.598,112.929,347.629,110.894,347.629z"/>
	<path fill="none" stroke="#60534D" stroke-width="0.5697" stroke-miterlimit="10" d="M110.894,347.629
		c-2.038,0-23.888,0.215-25.739,0c-1.852-0.217-4.975-12.018-2.928-12.682c2.049-0.666,29.851-0.65,31.317,0
		C115.013,335.598,112.929,347.629,110.894,347.629z"/>
</g>
<g>
	<path fill="#847C79" d="M119.925,265.551c1.221,12.652-8.287,17.941-21.242,19.191c-12.955,1.252-24.452-2.01-25.674-14.662
		c-0.268-2.764-0.016-5.682,0.677-8.566c2.474-10.318,7.308-22.578,19.932-22.564C116.23,238.975,118.702,252.898,119.925,265.551z"
		/>
	<path fill="#EAE2DF" d="M74.336,258.82c0,0,28.397-14.08,43.104-6.678c0,0,2.87,6.986,2.344,12.002
		c-0.528,5.014-46.171,8.555-46.497,7.391C73.286,271.535,72.405,264.656,74.336,258.82z"/>
	<path fill="none" stroke="#60534D" stroke-width="0.5717" stroke-miterlimit="10" d="M120.061,265.551
		c1.223,12.652-8.285,17.941-21.242,19.191c-12.955,1.252-24.451-2.01-25.673-14.662c-0.267-2.764-0.015-5.682,0.677-8.566
		c2.474-10.318,7.079-22.865,19.932-22.564C116.361,239.48,118.839,252.898,120.061,265.551z"/>
	<circle fill="#60534D" cx="105.732" cy="260.301" r="6.667"/>
	<circle fill="#60534D" cx="83.806" cy="264.294" r="3.771"/>
	<circle fill="#60534D" cx="93.049" cy="258.59" r="1.004"/>
	<circle fill="#60534D" cx="93.509" cy="263.356" r="1.003"/>
	<circle fill="#FFFFFF" cx="105.993" cy="260.275" r="2.924"/>
</g>
<rect x="94.314" y="284.533" fill="#60534D" width="5.177" height="6.502"/>
<g>
	<path fill="#847C79" d="M115.205,336.598c-2.709,0-31.751,0.787-34.212,0c-2.462-0.789-6.612-43.82-3.891-46.246
		c2.721-2.424,39.677-2.369,41.626,0C120.68,292.723,117.911,336.598,115.205,336.598z"/>
	<path fill="none" stroke="#60534D" stroke-width="0.5697" stroke-miterlimit="10" d="M115.205,336.598
		c-2.709,0-31.751,0.787-34.212,0c-2.462-0.789-6.612-43.82-3.891-46.246c2.721-2.424,39.677-2.369,41.626,0
		C120.68,292.723,117.911,336.598,115.205,336.598z"/>
</g>
<g>
	<g>
		<g>
			<path fill="#847C79" d="M124.002,289.455c0,0,22.027,121.508,12.616,139.549l-15.489-1.039c0,0,0.603-134.322-2.375-137.729
				L124.002,289.455z"/>
			<line fill="#847C79" x1="128.216" y1="314.381" x2="120.404" y2="314.063"/>
		</g>
		<line fill="#847C79" x1="132.628" y1="343.605" x2="120.916" y2="343.768"/>
		<line fill="#847C79" x1="136.809" y1="377.391" x2="121.143" y2="378.154"/>
		<line fill="#847C79" x1="138.874" y1="416.432" x2="121.167" y2="414.846"/>
	</g>
	<g>
		<g>
			<path fill="none" stroke="#60534D" stroke-width="0.5697" stroke-miterlimit="10" d="M124.002,289.525
				c0,0,22.027,121.508,12.616,139.549l-15.489-1.037c0,0,0.603-134.324-2.375-137.73L124.002,289.525z"/>
			
				<line fill="none" stroke="#60534D" stroke-width="0.5697" stroke-miterlimit="10" x1="128.216" y1="314.451" x2="120.404" y2="314.133"/>
		</g>
		
			<line fill="none" stroke="#60534D" stroke-width="0.5697" stroke-miterlimit="10" x1="132.628" y1="343.676" x2="120.916" y2="343.84"/>
		
			<line fill="none" stroke="#60534D" stroke-width="0.5697" stroke-miterlimit="10" x1="136.809" y1="377.461" x2="121.143" y2="378.225"/>
		
			<line fill="none" stroke="#60534D" stroke-width="0.5697" stroke-miterlimit="10" x1="138.874" y1="416.504" x2="121.167" y2="414.914"/>
	</g>
</g>
</svg>
