<?xml version="1.0" standalone="no"?><!DOCTYPE svg PUBLIC "-//W3C//DTD SVG 1.1//EN" "http://www.w3.org/Graphics/SVG/1.1/DTD/svg11.dtd"><svg t="1628259034832" class="icon" viewBox="0 0 1024 1024" version="1.1" xmlns="http://www.w3.org/2000/svg" p-id="970" width="600" height="600" xmlns:xlink="http://www.w3.org/1999/xlink"><defs><style type="text/css"></style></defs><path d="M640.7135 0H172.302251c-23.421432 0-42.583864 19.162432-42.583864 42.583864v936.843988c0 23.421432 19.162432 42.583864 42.583864 42.583864h681.340803c23.421432 0 42.583864-19.162432 42.583864-42.583864V255.503185L640.7135 0" fill="#E5E8E7" p-id="971"></path><path d="M561.944506 511.005346H204.240661v-67.060325c0-48.487318 40.35101-87.790462 90.131786-87.790462h177.441295c49.780777 0 90.131787 39.303144 90.131787 87.790462v67.060325" fill="#78A6CD" p-id="972"></path><path d="M323.475276 356.155583h119.234615v-77.425394H323.475276z" fill="#EDB54A" p-id="973"></path><path d="M283.730063 123.880425V240.017492c0 64.136739 44.484144 116.13809 99.362009 116.138091s99.362009-52.000328 99.362008-116.138091V123.880425H283.730063" fill="#F9C95B" p-id="974"></path><path d="M502.326687 217.700207v-62.966077c0-18.98847-13.453407-34.783201-31.537274-39.19672 5.742794-12.930497-2.6432-30.369681-20.349467-30.369682H340.863295c-42.526559 0-77.005838 33.582863-77.005838 75.005275v57.527204c11.824303 8.380878 19.872606 23.808242 19.872606 41.674145v-58.068533c0-21.389146 17.786085-38.712697 39.745213-38.712697h23.86657a87.208201 87.208201 0 0 0 30.682813-5.555529l24.940019-10.239202 50.833759 17.516955c16.514115 4.703115 28.655643 19.394722 28.655643 36.989449v58.068534c0-17.86488 8.048303-33.292244 19.872607-41.673122" fill="#3D4247" p-id="975"></path><path d="M462.581474 356.155583c0 42.757826-35.591613 77.425394-79.489402 77.425393s-79.489402-34.667567-79.489403-77.425393" fill="#EDB54A" p-id="976"></path><path d="M383.092072 452.936813c-54.787814 0-99.362009-43.396369-99.362009-96.78123h39.745213c0 32.025391 26.737968 58.068534 59.617819 58.068533s59.617819-26.044166 59.617819-58.068533h39.745213c-0.002047 53.384861-44.575218 96.78123-99.364055 96.78123" fill="#527CB1" p-id="977"></path><path d="M640.7135 0l0.010233 255.503185h255.503185L640.7135 0" fill="#F7F8F9" p-id="978"></path><path d="M896.226918 511.005346l-0.010233-255.502161H640.7135l255.513418 255.502161" fill="#C7CBCE" p-id="979"></path><path d="M214.886115 660.048871H342.637708v-42.583864H214.886115z" fill="#81B954" p-id="980"></path><path d="M385.221572 955.891809h42.583864V615.220896h-42.583864z" fill="#60666B" p-id="981"></path><path d="M470.3893 660.048871h340.66989v-42.583864H470.3893zM470.3893 745.216599h255.502162v-42.583864H470.3893z" fill="#A3AAB0" p-id="982"></path><path d="M214.886115 830.384327H342.637708v-42.583864H214.886115z" fill="#81B954" p-id="983"></path><path d="M470.3893 830.384327h340.66989v-42.583864H470.3893zM470.3893 915.552056h127.750569v-42.583864H470.3893z" fill="#A3AAB0" p-id="984"></path></svg>