<?xml version="1.0" standalone="no"?><!DOCTYPE svg PUBLIC "-//W3C//DTD SVG 1.1//EN" "http://www.w3.org/Graphics/SVG/1.1/DTD/svg11.dtd"><svg t="1628226551571" class="icon" viewBox="0 0 1024 1024" version="1.1" xmlns="http://www.w3.org/2000/svg" p-id="4638" width="600" height="600" xmlns:xlink="http://www.w3.org/1999/xlink"><defs><style type="text/css"></style></defs><path d="M464.114 820.956l-0.244 98.096h189.036l-0.046-98.154c135.284-40.474 233.61-165.816 233.61-314.276 0-181.194-146.888-328.078-328.08-328.078-181.19 0-328.078 146.884-328.078 328.078-0.004 148.426 98.56 273.832 233.802 314.334" fill="#80CFF4" p-id="4639"></path><path d="M606.038 904.99H417a11.722 11.722 0 0 1-11.716-11.75l0.224-89.47c-65.202-21.436-123.616-63.17-165.228-118.222-44.85-59.336-68.554-130.126-68.554-204.704 0-187.366 152.43-339.794 339.794-339.794 187.364 0 339.794 152.43 339.794 339.794 0 74.612-23.664 145.394-68.438 204.69-41.56 55.048-99.958 96.77-165.164 118.186l0.042 89.548a11.716 11.716 0 0 1-11.716 11.722z m-177.29-23.434h165.564l-0.042-86.434a11.72 11.72 0 0 1 8.36-11.232c132.624-39.678 225.248-164.292 225.248-303.046 0-174.442-141.918-316.362-316.362-316.362-174.442 0-316.362 141.92-316.362 316.362 0 138.714 92.71 263.358 225.454 303.108a11.718 11.718 0 0 1 8.354 11.254l-0.214 86.35zM602.032 949.514h-189.038a11.716 11.716 0 0 1 0-23.432h189.038c6.474 0 11.716 5.244 11.716 11.716s-5.242 11.716-11.716 11.716zM589.534 986.268h-164.04a11.72 11.72 0 0 1 0-23.432h164.04a11.716 11.716 0 1 1 0 23.432zM566.1 1023.022h-117.172a11.72 11.72 0 0 1 0-23.434h117.172c6.472 0 11.716 5.244 11.716 11.716s-5.244 11.718-11.716 11.718zM138.226 514.188H44.49a11.718 11.718 0 0 1 0-23.432h93.736a11.716 11.716 0 0 1 0 23.432zM799.094 238a11.716 11.716 0 0 1-8.284-20.002l66.282-66.282a11.718 11.718 0 0 1 16.568 16.57l-66.282 66.282a11.688 11.688 0 0 1-8.284 3.432zM520.202 118.148a11.72 11.72 0 0 1-11.716-11.716V12.696a11.718 11.718 0 0 1 23.432 0v93.736a11.718 11.718 0 0 1-11.716 11.716zM216.552 246.936c-3 0-5.996-1.144-8.286-3.432l-66.28-66.278a11.712 11.712 0 0 1 0-16.57 11.716 11.716 0 0 1 16.57 0l66.278 66.278a11.712 11.712 0 0 1 0 16.57 11.668 11.668 0 0 1-8.282 3.432zM886.466 788.268a11.68 11.68 0 0 1-8.286-3.432l-66.282-66.288a11.714 11.714 0 0 1 16.568-16.566l66.282 66.284a11.716 11.716 0 0 1-8.282 20.002zM150.276 798.076a11.678 11.678 0 0 1-8.288-3.434 11.71 11.71 0 0 1 0-16.568l66.28-66.282a11.714 11.714 0 0 1 16.568 0 11.712 11.712 0 0 1 0 16.57l-66.278 66.28a11.668 11.668 0 0 1-8.282 3.434zM979.508 514.188h-93.73a11.716 11.716 0 1 1 0-23.432h93.73a11.718 11.718 0 1 1 0 23.432z" p-id="4640"></path><path d="M336.634 276.08a11.712 11.712 0 0 1-7.43-20.782 287.804 287.804 0 0 1 58.206-36.986 11.718 11.718 0 0 1 10.104 21.144 264.46 264.46 0 0 0-53.46 33.974 11.7 11.7 0 0 1-7.42 2.65zM262.518 370.238a11.714 11.714 0 0 1-10.552-16.792 288.232 288.232 0 0 1 29.678-48.678 11.718 11.718 0 0 1 18.702 14.12 264.494 264.494 0 0 0-27.258 44.708 11.73 11.73 0 0 1-10.57 6.642zM675.76 710.844a11.692 11.692 0 0 1-9.406-4.72 11.712 11.712 0 0 1 2.396-16.392 265.9 265.9 0 0 0 44.03-41.364 11.714 11.714 0 0 1 16.516-1.37 11.716 11.716 0 0 1 1.368 16.514 289.348 289.348 0 0 1-47.914 45.01 11.666 11.666 0 0 1-6.99 2.322zM747.636 631.522a11.654 11.654 0 0 1-6.03-1.682 11.718 11.718 0 0 1-3.998-16.08c24.616-40.912 37.628-87.914 37.628-135.926a11.716 11.716 0 0 1 23.432 0c0 52.272-14.17 103.454-40.98 148.012a11.72 11.72 0 0 1-10.052 5.676z" p-id="4641"></path><path d="M392.47 240.602a11.716 11.716 0 0 1-5.06-22.292c38.812-18.546 80.458-27.95 123.792-27.95a11.72 11.72 0 0 1 0 23.434c-39.804 0-78.056 8.632-113.688 25.658a11.652 11.652 0 0 1-5.044 1.15z" p-id="4642"></path><path d="M271.504 855.606a12.902 12.902 0 0 1-12.666-15.34 12.902 12.902 0 0 1 15.104-10.208 12.812 12.812 0 0 1 8.23 5.438 12.812 12.812 0 0 1 1.97 9.666 12.9 12.9 0 0 1-12.638 10.444z m-0.024-23.442a10.552 10.552 0 0 0-10.344 8.546 10.466 10.466 0 0 0 1.614 7.908 10.466 10.466 0 0 0 6.736 4.448 10.556 10.556 0 0 0 12.356-8.35 10.474 10.474 0 0 0-1.614-7.908 10.482 10.482 0 0 0-6.732-4.45 10.574 10.574 0 0 0-2.016-0.194z" fill="#F18D00" p-id="4643"></path><path d="M101.44 668.076m-35.152 0a35.152 35.152 0 1 0 70.304 0 35.152 35.152 0 1 0-70.304 0Z" fill="#36B8F2" p-id="4644"></path><path d="M105.828 724.778c-2.686 0-5.396-0.258-8.054-0.776-22.832-4.42-37.814-26.594-33.396-49.432 3.836-19.8 21.232-34.17 41.37-34.17 2.69 0 5.402 0.258 8.058 0.776a41.882 41.882 0 0 1 26.934 17.796 41.9 41.9 0 0 1 6.466 31.626c-3.834 19.808-21.236 34.18-41.378 34.18z m-0.082-70.318c-13.416 0-25.006 9.582-27.562 22.782-2.946 15.226 7.042 30.012 22.262 32.958 1.782 0.342 3.592 0.52 5.38 0.52 13.42 0 25.018-9.584 27.576-22.786a27.942 27.942 0 0 0-4.312-21.086 27.94 27.94 0 0 0-17.956-11.868c-1.78-0.346-3.594-0.52-5.388-0.52zM207.242 885.456a4.682 4.682 0 0 1-2.81-8.438l17.574-13.15a4.692 4.692 0 0 1 6.562 0.944 4.69 4.69 0 0 1-0.946 6.562l-17.574 13.148a4.696 4.696 0 0 1-2.806 0.934z" p-id="4645"></path><path d="M222.602 887.67a4.68 4.68 0 0 1-3.758-1.876l-13.144-17.582a4.684 4.684 0 0 1 0.946-6.56 4.69 4.69 0 0 1 6.56 0.942l13.146 17.58a4.69 4.69 0 0 1-3.75 7.496z" p-id="4646"></path><path d="M692.964 93.152h-58.586a7.032 7.032 0 0 1 0-14.062h58.586a7.03 7.03 0 1 1 0 14.062z" fill="#E81F1F" p-id="4647"></path><path d="M663.672 122.446a7.032 7.032 0 0 1-7.032-7.03V56.83a7.032 7.032 0 0 1 14.062 0v58.586a7.03 7.03 0 0 1-7.03 7.03z" fill="#E81F1F" p-id="4648"></path><path d="M741.004 86.122m-19.04 0a19.04 19.04 0 1 0 38.08 0 19.04 19.04 0 1 0-38.08 0Z" fill="#58B530" p-id="4649"></path><path d="M804.376 70.124c-1.122 0-2.25-0.4-3.148-1.218l-18.952-17.212a4.69 4.69 0 0 1-0.318-6.622 4.69 4.69 0 0 1 6.622-0.318l18.952 17.214a4.694 4.694 0 0 1 0.318 6.622 4.682 4.682 0 0 1-3.474 1.534z" fill="#36B8F2" p-id="4650"></path><path d="M786.296 70.994a4.686 4.686 0 0 1-3.466-7.84l17.21-18.954a4.688 4.688 0 0 1 6.938 6.302l-17.208 18.956a4.69 4.69 0 0 1-3.474 1.536z" fill="#36B8F2" p-id="4651"></path></svg>