<?xml version="1.0" standalone="no"?><!DOCTYPE svg PUBLIC "-//W3C//DTD SVG 1.1//EN" "http://www.w3.org/Graphics/SVG/1.1/DTD/svg11.dtd"><svg t="1583415132249" class="icon" viewBox="0 0 1024 1024" version="1.1" xmlns="http://www.w3.org/2000/svg" p-id="2060" xmlns:xlink="http://www.w3.org/1999/xlink" width="200" height="200"><defs><style type="text/css"></style></defs><path d="M634.645333 122.645333c-42.901333 0-84.010667 7.232-122.666667 20.096-38.613333-12.864-79.765333-20.096-122.666667-20.096C174.656 122.645333 0 297.322667 0 512c0 214.656 174.656 389.354667 389.333333 389.354667 42.88 0 84.032-7.232 122.666667-20.096 38.634667 12.885333 79.744 20.096 122.666667 20.096C849.322667 901.354667 1024 726.656 1024 512 1024 297.322667 849.322667 122.645333 634.645333 122.645333zM389.354667 858.624c-191.146667 0-346.624-155.498667-346.624-346.624 0-191.104 155.477333-346.624 346.602667-346.624 19.904 0 39.317333 2.069333 58.304 5.312-120.448 66.282667-202.325333 194.389333-202.325333 341.333333 0 146.944 81.856 275.072 202.325333 341.333333C428.650667 856.533333 409.258667 858.624 389.354667 858.624zM288.042667 512c0-147.904 93.290667-274.112 223.957333-323.797333 130.666667 49.706667 223.957333 175.914667 223.978667 323.797333 0 147.925333-93.290667 274.133333-223.957333 323.797333C381.312 786.133333 288.042667 659.925333 288.042667 512zM634.645333 858.624c-19.904 0-39.317333-2.090667-58.304-5.290667 120.448-66.282667 202.325333-194.410667 202.325333-341.333333 0-146.922667-81.877333-275.050667-202.325333-341.333333 19.029333-3.242667 38.421333-5.312 58.304-5.312 191.125333 0 346.624 155.498667 346.624 346.624S825.770667 858.624 634.645333 858.624z" p-id="2061" fill="#d81e06"></path><path d="M610.176 490.645333l-76.8 0L533.376 413.866667c0-11.776-9.536-21.354667-21.376-21.354667-11.797333 0-21.354667 9.557333-21.354667 21.354667l0 76.778667L413.866667 490.645333c-11.776 0-21.354667 9.557333-21.354667 21.354667s9.578667 21.376 21.354667 21.376l76.778667 0L490.645333 610.133333c0 11.861333 9.557333 21.376 21.354667 21.376 11.84 0 21.376-9.514667 21.376-21.376l0-76.757333 76.8 0c11.797333 0 21.376-9.6 21.376-21.376S621.952 490.645333 610.176 490.645333z" p-id="2062" fill="#d81e06"></path></svg>