<?xml version="1.0" standalone="no"?><!DOCTYPE svg PUBLIC "-//W3C//DTD SVG 1.1//EN" "http://www.w3.org/Graphics/SVG/1.1/DTD/svg11.dtd"><svg t="1586671901696" class="icon" viewBox="0 0 1024 1024" version="1.1" xmlns="http://www.w3.org/2000/svg" p-id="617" xmlns:xlink="http://www.w3.org/1999/xlink" width="200" height="200"><defs><style type="text/css"></style></defs><path d="M646.4 787.2c16 0 28.8-12.8 28.8-28.8V432c0-16-12.8-28.8-28.8-28.8s-28.8 12.8-28.8 28.8v326.4c0 16 12.8 28.8 28.8 28.8zM614.4 864c0 16 12.8 32 32 32s32-12.8 32-32c0-16-12.8-32-32-32s-32 16-32 32zM537.6 291.2H265.6c-16 0-28.8 12.8-28.8 32s12.8 32 28.8 32h272c16 0 28.8-12.8 28.8-32s-12.8-32-28.8-32zM265.6 515.2h108.8c16 0 28.8-12.8 28.8-32 0-16-12.8-32-28.8-32H265.6c-16 0-28.8 12.8-28.8 32s12.8 32 28.8 32zM265.6 681.6h163.2c16 0 28.8-12.8 28.8-32 0-16-12.8-32-28.8-32H265.6c-16 0-28.8 12.8-28.8 32s12.8 32 28.8 32z" p-id="618" fill="#f4ea2a"></path><path d="M806.4 128H217.6C169.6 128 128 166.4 128 214.4v592c0 48 38.4 86.4 86.4 86.4h217.6c16 0 32-12.8 32-32 0-16-12.8-32-32-32H217.6c-16 3.2-25.6-6.4-25.6-22.4V214.4c0-12.8 12.8-25.6 25.6-25.6h592c12.8 0 25.6 12.8 25.6 25.6v592c0 12.8-12.8 25.6-25.6 25.6h-60.8c-16 0-32 12.8-32 32 0 16 12.8 32 32 32h60.8c48 0 86.4-38.4 86.4-86.4V214.4C896 166.4 854.4 128 806.4 128z" p-id="619" fill="#f4ea2a"></path></svg>