<?xml version="1.0" standalone="no"?><!DOCTYPE svg PUBLIC "-//W3C//DTD SVG 1.1//EN" "http://www.w3.org/Graphics/SVG/1.1/DTD/svg11.dtd"><svg t="1584954243548" class="icon" viewBox="0 0 1024 1024" version="1.1" xmlns="http://www.w3.org/2000/svg" p-id="1175" xmlns:xlink="http://www.w3.org/1999/xlink" width="128" height="128"><defs><style type="text/css"></style></defs><path d="M552.448 936.618667L512 955.733333l-40.448-19.114666A529.066667 529.066667 0 0 1 170.666667 488.618667L153.6 187.733333l358.4-85.333333 358.4 85.333333-17.066667 300.885334a529.066667 529.066667 0 0 1-300.885333 448z" fill="#72E8B8" p-id="1176"></path><path d="M853.333333 403.285333a529.066667 529.066667 0 0 1-300.885333 448L512 870.4l-40.448-19.114667A529.066667 529.066667 0 0 1 170.666667 403.285333l-12.458667-216.746666L153.6 187.733333l17.066667 300.885334a529.066667 529.066667 0 0 0 300.885333 448L512 955.733333l40.448-19.114666A529.066667 529.066667 0 0 0 853.333333 488.618667L870.4 187.733333l-4.608-1.194666z" fill="#49CE95" p-id="1177"></path><path d="M512 170.666667l354.645333 84.48L870.4 187.733333 512 102.4 153.6 187.733333l3.754667 67.413334L512 170.666667z" fill="#D7FFEE" p-id="1178"></path><path d="M848.554667 156.16L517.973333 77.482667a25.429333 25.429333 0 0 0-11.946666 0L175.445333 156.16a59.733333 59.733333 0 0 0-45.738666 61.44l15.189333 273.066667A553.301333 553.301333 0 0 0 460.8 959.658667l25.6 13.141333a59.392 59.392 0 0 0 51.2 0l25.6-13.141333a553.301333 553.301333 0 0 0 316.074667-469.674667l15.189333-273.066667a59.733333 59.733333 0 0 0-45.909333-60.757333z m-5.290667 58.538667L828.586667 477.866667H529.066667V132.778667l307.2 73.216a8.533333 8.533333 0 0 1 6.997333 8.874666zM187.733333 205.994667l307.2-73.216V477.866667H195.413333l-14.677333-262.997334a8.533333 8.533333 0 0 1 6.997333-8.874666z m295.253334 707.413333A501.930667 501.930667 0 0 1 198.144 512H494.933333v407.381333z m59.050666 0l-12.458666 5.802667V512h296.277333a501.930667 501.930667 0 0 1-284.330667 401.408z" fill="#3E4454" p-id="1179"></path></svg>