<?xml version="1.0" standalone="no"?><!DOCTYPE svg PUBLIC "-//W3C//DTD SVG 1.1//EN" "http://www.w3.org/Graphics/SVG/1.1/DTD/svg11.dtd"><svg t="1586588279985" class="icon" viewBox="0 0 1024 1024" version="1.1" xmlns="http://www.w3.org/2000/svg" p-id="1868" xmlns:xlink="http://www.w3.org/1999/xlink" width="200" height="200"><defs><style type="text/css"></style></defs><path d="M565.08 842.64c0 23.86-19.3 43.26-43.1 43.46v27.58c0 5.52-4.48 10-10 10s-10-4.48-10-10v-27.58h-33.1c-5.52 0-10-4.48-10-10s4.48-10 10-10h52.76c12.92 0 23.44-10.52 23.44-23.46 0-12.92-10.52-23.44-23.44-23.44h-19.3c-23.96 0-43.46-19.5-43.46-43.46 0-23.84 19.3-43.26 43.1-43.44v-27.58c0-5.54 4.48-10 10-10s10 4.46 10 10v27.56h33.1c5.52 0 10 4.48 10 10 0 5.54-4.48 10-10 10h-52.74c-12.94 0-23.46 10.54-23.46 23.46 0 12.94 10.52 23.46 23.46 23.46h19.3c23.94 0 43.44 19.48 43.44 43.44zM512 86.86c-71.86 0-130.3 58.46-130.3 130.32 0 71.84 58.44 130.3 130.3 130.3 71.84 0 130.3-58.46 130.3-130.3 0-71.86-58.46-130.32-130.3-130.32z m0 240.62c-60.82 0-110.3-49.48-110.3-110.3 0-60.84 49.48-110.32 110.3-110.32s110.3 49.48 110.3 110.32c0 60.82-49.48 110.3-110.3 110.3z" fill="#23130D" p-id="1869"></path><path d="M789.62 398.24v-0.04-0.02c-0.14-0.62-0.34-1.24-0.58-1.82-0.02-0.06-0.04-0.1-0.06-0.16-0.24-0.54-0.52-1.08-0.86-1.56-0.04-0.08-0.1-0.14-0.14-0.2-0.34-0.48-0.7-0.94-1.12-1.34-0.04-0.04-0.08-0.06-0.12-0.1-0.2-0.2-0.42-0.4-0.64-0.58l-105.94-89.48c-0.1-2.72-0.26-5.42-0.44-8.04-0.54-8.34-1.1-16.96 0.84-22.96 1.8-5.54 6.92-11.66 12.34-18.12 8.64-10.3 18.42-21.98 18.42-36.64 0-14.68-9.78-26.34-18.42-36.64-5.42-6.48-10.52-12.58-12.34-18.14-1.94-6-1.38-14.62-0.84-22.96 0.86-13.16 1.82-28.06-6.46-39.44-8.36-11.5-22.94-15.18-35.78-18.44-8.4-2.12-16.34-4.14-21.32-7.76-4.88-3.54-9.18-10.4-13.72-17.66-7.1-11.32-15.12-24.14-28.84-28.58-3.18-1.04-6.6-1.56-10.18-1.56-9.84 0-19.52 3.86-28.88 7.58-7.88 3.14-16.02 6.4-22.54 6.4s-14.68-3.26-22.56-6.4c-9.36-3.72-19.04-7.58-28.88-7.58-3.58 0-7 0.52-10.18 1.56-13.7 4.44-21.74 17.26-28.82 28.56-4.56 7.28-8.86 14.14-13.72 17.68-4.98 3.62-12.92 5.64-21.32 7.76-12.86 3.24-27.42 6.92-35.78 18.44-8.3 11.38-7.32 26.3-6.48 39.44 0.54 8.34 1.1 16.96-0.84 22.96-1.8 5.56-6.92 11.66-12.34 18.14-8.62 10.3-18.42 21.96-18.42 36.64 0 14.66 9.8 26.34 18.42 36.64 5.42 6.46 10.54 12.58 12.34 18.14 1.94 5.98 1.38 14.6 0.84 22.94-0.16 2.62-0.34 5.32-0.44 8.04l-106.1 89.62c-0.1 0.08-0.16 0.18-0.24 0.26-0.28 0.24-0.54 0.52-0.78 0.8-0.2 0.22-0.4 0.44-0.56 0.66-0.2 0.28-0.38 0.58-0.56 0.88-0.16 0.26-0.32 0.54-0.46 0.82-0.12 0.3-0.24 0.6-0.34 0.9-0.12 0.32-0.22 0.64-0.3 0.98-0.04 0.12-0.1 0.24-0.12 0.36-0.04 0.18-0.02 0.38-0.06 0.56-0.04 0.34-0.08 0.68-0.1 1.02 0 0.32 0 0.66 0.02 0.98 0.02 0.32 0.04 0.62 0.1 0.94a11.3 11.3 0 0 0 0.46 1.86c0.12 0.32 0.26 0.64 0.4 0.94 0.14 0.28 0.28 0.54 0.44 0.8 0.18 0.32 0.38 0.62 0.62 0.9 0.1 0.16 0.18 0.3 0.28 0.44 0.08 0.08 0.16 0.14 0.24 0.22 0.3 0.34 0.66 0.66 1.02 0.96 0.18 0.16 0.36 0.32 0.54 0.46 0.38 0.28 0.8 0.5 1.22 0.72 0.2 0.1 0.38 0.24 0.58 0.32 0.42 0.2 0.88 0.32 1.32 0.44 0.24 0.06 0.44 0.16 0.68 0.2 0.02 0.02 0.04 0.02 0.06 0.02l89.2 18.12 2.94 90.98c0 0.14 0.04 0.24 0.04 0.38 0.04 0.34 0.08 0.66 0.14 1 0.06 0.32 0.12 0.62 0.2 0.94 0.08 0.3 0.18 0.58 0.3 0.88 0.12 0.32 0.24 0.64 0.4 0.94 0.12 0.26 0.28 0.5 0.44 0.76 0.18 0.32 0.38 0.62 0.6 0.9 0.1 0.1 0.14 0.24 0.24 0.34 0.08 0.1 0.2 0.18 0.3 0.28 0.3 0.34 0.62 0.62 0.96 0.92 0.2 0.16 0.4 0.34 0.62 0.5 0.36 0.24 0.74 0.46 1.12 0.66 0.22 0.12 0.44 0.24 0.66 0.34 0.46 0.2 0.94 0.34 1.44 0.48 0.16 0.04 0.32 0.1 0.48 0.14 0.66 0.14 1.34 0.22 2.06 0.22h0.32c0.16 0 0.3-0.06 0.44-0.06 0.44-0.04 0.86-0.08 1.3-0.18 0.24-0.04 0.46-0.12 0.7-0.18 0.36-0.1 0.7-0.22 1.06-0.36 0.24-0.1 0.48-0.22 0.72-0.34 0.3-0.16 0.6-0.34 0.9-0.52 0.24-0.16 0.46-0.32 0.68-0.48 0.1-0.08 0.22-0.14 0.32-0.24l153.26-129.44v95.82H467.2c-5.52 0-10 4.46-10 10v24.12c-14.14 0.82-25.4 12.56-25.4 26.9v0.74c0 9.46 4.92 17.8 12.32 22.62v53.9c-73.16 28-121.82 98.32-121.82 177.22 0 104.6 85.1 189.7 189.7 189.7s189.7-85.1 189.7-189.7c0-78.88-48.66-149.2-121.82-177.22v-53.9c7.4-4.82 12.3-13.16 12.3-22.62v-0.74c0-14.34-11.26-26.08-25.4-26.9V502.8c0-5.54-4.48-10-10-10h-32.76v-92.38l149.2 126c0.1 0.08 0.22 0.14 0.32 0.22 0.24 0.18 0.46 0.34 0.7 0.5 0.3 0.18 0.6 0.36 0.9 0.52 0.24 0.12 0.48 0.22 0.72 0.32 0.34 0.16 0.7 0.28 1.06 0.38 0.24 0.06 0.46 0.14 0.7 0.18 0.42 0.1 0.86 0.14 1.3 0.18 0.14 0 0.28 0.04 0.44 0.06h0.32c0.7 0 1.38-0.08 2.04-0.22 0.18-0.04 0.32-0.1 0.48-0.14 0.5-0.14 1-0.28 1.46-0.48 0.22-0.1 0.42-0.24 0.64-0.34 0.38-0.2 0.78-0.42 1.12-0.68 0.22-0.14 0.42-0.32 0.62-0.48 0.34-0.3 0.68-0.6 0.98-0.92 0.08-0.1 0.2-0.18 0.3-0.28 0.08-0.12 0.14-0.24 0.22-0.34 0.22-0.28 0.42-0.6 0.62-0.9 0.16-0.26 0.32-0.5 0.44-0.78 0.16-0.3 0.28-0.6 0.4-0.92 0.1-0.3 0.22-0.6 0.3-0.9 0.08-0.3 0.14-0.6 0.18-0.9 0.06-0.36 0.12-0.7 0.14-1.04 0.02-0.12 0.04-0.24 0.04-0.36l2.94-90.98 89.2-18.12a9.966 9.966 0 0 0 7.82-11.76z m-435.98 99.58l-2.52-78.24c-0.02-0.24-0.08-0.48-0.1-0.72-0.04-0.38-0.08-0.76-0.16-1.12-0.06-0.3-0.16-0.58-0.26-0.86-0.1-0.34-0.2-0.68-0.34-1-0.12-0.26-0.26-0.5-0.4-0.74-0.18-0.34-0.34-0.66-0.56-0.96-0.14-0.18-0.3-0.36-0.44-0.54a9.2 9.2 0 0 0-0.82-0.94c-0.14-0.12-0.3-0.24-0.44-0.36-0.34-0.3-0.7-0.58-1.08-0.84-0.16-0.1-0.32-0.16-0.48-0.26-0.4-0.22-0.8-0.44-1.24-0.62-0.22-0.08-0.46-0.14-0.7-0.22-0.32-0.1-0.64-0.24-1-0.3l-76.7-15.58 80.26-67.8c1 2.66 2.32 5.24 4.08 7.64 8.36 11.5 22.92 15.18 35.78 18.42 8.4 2.14 16.34 4.14 21.32 7.76 4.86 3.56 9.16 10.42 13.72 17.68 7.08 11.3 15.12 24.12 28.82 28.58 2.9 0.94 6 1.42 9.24 1.52l-105.98 89.5z m328.06 310.48c0 93.56-76.12 169.7-169.7 169.7s-169.7-76.14-169.7-169.7c0-72.74 46.22-137.32 115.04-160.72 4.04-1.38 6.78-5.2 6.78-9.48v-56.56H504v75.78c-80.16 4.18-144.08 70.7-144.08 151.88 0 83.86 68.22 152.08 152.08 152.08s152.08-68.22 152.08-152.08c0-79.82-61.82-145.42-140.08-151.56v-76.1h35.88v56.56c0 4.28 2.74 8.1 6.78 9.48 68.82 23.4 115.04 87.98 115.04 160.72zM512 677.12c72.82 0 132.08 59.24 132.08 132.08 0 72.82-59.26 132.08-132.08 132.08-72.84 0-132.08-59.26-132.08-132.08 0-72.84 59.24-132.08 132.08-132.08z m53.22-130.28c3.84 0 6.96 3.14 6.96 6.98v0.74c0 3.86-3.12 6.98-6.96 6.98h-106.44c-3.84 0-6.98-3.12-6.98-6.98v-0.74a7 7 0 0 1 6.98-6.98h106.44z m-18.44-34.04v14.04H477.2v-14.04h69.58z m-4.84-130.62c-5.44-2.16-11.02-4.36-16.68-5.88h-0.02c-3.62-0.96-7.28-1.62-10.98-1.82-0.08 0-0.16-0.02-0.24-0.02h-0.08c-0.66-0.02-1.3-0.08-1.94-0.08-4.44 0-8.8 0.76-13.1 1.88-0.08 0.02-0.16 0.04-0.24 0.08-5.64 1.5-11.18 3.68-16.62 5.84-7.96 3.18-15.48 6.16-21.48 6.18-1.5 0-2.8-0.2-4-0.58-6.8-2.22-12.26-10.94-18.06-20.18-5.36-8.56-10.9-17.4-18.9-23.22-8.1-5.9-18.32-8.48-28.18-10.98-10.5-2.66-20.4-5.16-24.52-10.82-4.02-5.54-3.36-15.66-2.68-26.38 0.66-10.22 1.36-20.78-1.78-30.42-3-9.26-9.62-17.16-16.02-24.8-7.08-8.44-13.76-16.42-13.76-23.8 0-7.4 6.68-15.36 13.76-23.8 6.4-7.64 13.02-15.56 16.02-24.8 3.14-9.64 2.44-20.2 1.78-30.42-0.68-10.74-1.34-20.86 2.68-26.4 4.12-5.66 14.02-8.16 24.52-10.82 9.88-2.48 20.08-5.06 28.18-10.96 8-5.82 13.54-14.68 18.9-23.22 5.8-9.24 11.26-17.98 18.06-20.18 1.2-0.4 2.5-0.58 4-0.58 6 0 13.52 3 21.48 6.16 9.64 3.84 19.6 7.82 29.96 7.82 10.34 0 20.32-3.98 29.94-7.82 7.96-3.16 15.48-6.16 21.48-6.16 1.5 0 2.8 0.18 4 0.58 6.8 2.2 12.28 10.94 18.06 20.18 5.36 8.56 10.9 17.4 18.9 23.22 8.12 5.9 18.32 8.48 28.2 10.98 10.48 2.64 20.4 5.16 24.5 10.8 4.04 5.54 3.38 15.66 2.68 26.38-0.66 10.22-1.34 20.8 1.78 30.44 3 9.24 9.62 17.14 16.04 24.8 7.06 8.44 13.74 16.4 13.74 23.8 0 7.38-6.68 15.36-13.74 23.8-6.42 7.64-13.04 15.54-16.04 24.8-3.12 9.62-2.44 20.2-1.78 30.42 0.7 10.72 1.36 20.84-2.68 26.38-4.1 5.66-14.02 8.16-24.5 10.82-9.88 2.5-20.1 5.08-28.2 10.98-8 5.82-13.54 14.66-18.9 23.22-5.8 9.24-11.26 17.96-18.06 20.18-1.2 0.38-2.5 0.56-4 0.56-6 0-13.52-2.98-21.48-6.16z m138.92 27.92c-0.26 0.06-0.48 0.16-0.74 0.24-0.36 0.1-0.72 0.18-1.06 0.32-0.24 0.1-0.44 0.22-0.66 0.34-0.38 0.18-0.74 0.36-1.1 0.58-0.16 0.12-0.3 0.24-0.44 0.36-0.38 0.28-0.74 0.56-1.06 0.88-0.12 0.12-0.2 0.24-0.3 0.34-0.34 0.36-0.64 0.74-0.92 1.14-0.1 0.14-0.16 0.28-0.24 0.42-0.24 0.4-0.48 0.8-0.66 1.24-0.1 0.22-0.16 0.48-0.24 0.7-0.12 0.36-0.26 0.72-0.34 1.1-0.08 0.36-0.1 0.72-0.14 1.1-0.02 0.24-0.1 0.48-0.1 0.72l-2.52 78.24-105.98-89.5c3.24-0.08 6.34-0.58 9.24-1.52 13.7-4.46 21.74-17.28 28.82-28.58 4.56-7.26 8.86-14.12 13.74-17.68 4.98-3.62 12.92-5.62 21.32-7.76 12.84-3.24 27.4-6.92 35.78-18.42 1.74-2.4 3.06-4.98 4.08-7.64l80.24 67.8-76.72 15.58z" fill="#23130D" p-id="1870"></path><path d="M477.2 512.8h69.58v14.04H477.2z" fill="#E1E1E5" p-id="1871"></path><path d="M477.2 512.8h69.58v7.02H477.2z" opacity=".2" p-id="1872"></path><path d="M572.18 553.82v0.74c0 3.86-3.12 6.98-6.96 6.98h-106.44c-3.84 0-6.98-3.12-6.98-6.98v-0.74a7 7 0 0 1 6.98-6.98h106.44c3.84 0 6.96 3.14 6.96 6.98z" fill="#636368" p-id="1873"></path><path d="M572.18 553.82v0.74c0 1.2-0.3 2.32-0.84 3.3a6.96 6.96 0 0 0-6.12-3.66h-106.44c-2.64 0-4.94 1.48-6.14 3.66a6.8 6.8 0 0 1-0.84-3.3v-0.74a7 7 0 0 1 6.98-6.98h106.44c3.84 0 6.96 3.14 6.96 6.98z" opacity=".2" p-id="1874"></path><path d="M681.7 808.3c0 15.98-2.22 31.46-6.38 46.14a168.86 168.86 0 0 1-30.6 59.46 170.582 170.582 0 0 1-28.34 28.12 168.85 168.85 0 0 1-33.68 20.52 161.438 161.438 0 0 1-19.76 7.64A168.86 168.86 0 0 1 512 978c-4.08 0-8.14-0.14-12.16-0.44-83.9-5.96-151.14-73.2-157.1-157.1-0.3-4.02-0.44-8.08-0.44-12.16 0-17.62 2.72-34.76 7.82-50.94 2.1-6.78 4.66-13.4 7.58-19.82 5.52-12.02 12.4-23.32 20.5-33.7a169.78 169.78 0 0 1 28.08-28.38 169.036 169.036 0 0 1 51.06-27.88 9.962 9.962 0 0 0 5.84-5.28c0.62-1.3 0.94-2.72 0.94-4.2v-56.56H504v75.78c-7.78 0.4-15.42 1.4-22.86 2.94-22.86 4.72-43.86 14.6-61.72 28.34a152.748 152.748 0 0 0-28.18 28.28c-8.04 10.46-14.74 22-19.84 34.36a146.814 146.814 0 0 0-6.82 20.58 151.544 151.544 0 0 0-4.66 37.38c0 10.9 1.16 21.54 3.36 31.8 12.46 58.38 58.54 104.46 116.92 116.92 10.26 2.2 20.9 3.36 31.8 3.36 12.9 0 25.42-1.62 37.38-4.66 7.08-1.78 13.94-4.08 20.58-6.82 12.36-5.12 23.9-11.8 34.36-19.84a152.14 152.14 0 0 0 28.26-28.2 151.168 151.168 0 0 0 28.34-61.72 150.77 150.77 0 0 0 3.16-30.84c0-79.82-61.82-145.42-140.08-151.56v-76.1h35.88v56.56c0 4.28 2.74 8.1 6.78 9.48 68.82 23.4 115.04 87.98 115.04 160.72z" fill="#8FDCFF" p-id="1875"></path><path d="M555.88 585.54v52.56a14.02 14.02 0 0 0 9.492 13.268c67.186 22.844 112.328 85.912 112.328 156.934 0 91.368-74.332 165.7-165.7 165.7s-165.7-74.332-165.7-165.7c0-71.022 45.142-134.088 112.332-156.934a14.02 14.02 0 0 0 9.488-13.266v-52.56H500v68.028c-81.096 6.182-144.08 73.822-144.08 155.632 0 86.062 70.018 156.08 156.08 156.08s156.08-70.018 156.08-156.08c0-79.658-61.236-147.126-140.08-155.214V585.54h27.88m4-4H524v76.1c78.26 6.14 140.08 71.74 140.08 151.56 0 83.86-68.22 152.08-152.08 152.08s-152.08-68.22-152.08-152.08c0-81.18 63.92-147.7 144.08-151.88v-75.78h-39.88v56.56c0 4.28-2.74 8.1-6.78 9.48-68.82 23.4-115.04 87.98-115.04 160.72 0 93.56 76.12 169.7 169.7 169.7s169.7-76.14 169.7-169.7c0-72.74-46.22-137.32-115.04-160.72a10.038 10.038 0 0 1-6.78-9.48v-56.56z" opacity=".2" p-id="1876"></path><path d="M521.64 819.2h-12.54l33.64 33.64c1.5-3.08 2.34-6.54 2.34-10.2 0-12.92-10.52-23.44-23.44-23.44z m0 0h-12.54l33.64 33.64c1.5-3.08 2.34-6.54 2.34-10.2 0-12.92-10.52-23.44-23.44-23.44z m0 0h-12.54l33.64 33.64c1.5-3.08 2.34-6.54 2.34-10.2 0-12.92-10.52-23.44-23.44-23.44zM512 677.12c-14.9 0-29.24 2.48-42.62 7.04a131.814 131.814 0 0 0-38.06 20.52c-6.88 5.32-13.2 11.3-18.9 17.84-5.54 6.34-10.46 13.2-14.72 20.52-2.2 3.8-4.22 7.72-6.06 11.74a130.508 130.508 0 0 0-10.36 35.5 131.26 131.26 0 0 0-1.36 18.92c0 72.82 59.24 132.08 132.08 132.08 6.42 0 12.74-0.46 18.92-1.36 12.46-1.78 24.36-5.34 35.46-10.38 4.04-1.82 7.96-3.84 11.76-6.08 7.32-4.24 14.2-9.16 20.54-14.7 6.54-5.7 12.52-12.02 17.82-18.9 8.8-11.36 15.78-24.2 20.52-38.06a131.258 131.258 0 0 0 7.06-42.6c0-72.84-59.26-132.08-132.08-132.08z m-26.22 82.02a23.436 23.436 0 0 0-6.9 16.6c0 12.94 10.52 23.46 23.46 23.46h19.3c1.48 0 2.96 0.08 4.42 0.22 20.42 2.08 36.72 18.36 38.8 38.8 0.14 1.46 0.22 2.92 0.22 4.42 0 9.2-2.86 17.74-7.76 24.76a43.472 43.472 0 0 1-19.64 15.6c-4.58 1.86-9.56 2.92-14.76 3.06-0.32 0.04-0.62 0.04-0.94 0.04v27.58a9.98 9.98 0 0 1-7.6 9.7c-0.78 0.2-1.58 0.3-2.4 0.3-5.52 0-10-4.48-10-10v-27.58h-33.1c-5.52 0-10-4.48-10-10 0-2.3 0.78-4.44 2.1-6.12a9.95 9.95 0 0 1 7.9-3.88h52.76c9.28 0 17.3-5.42 21.1-13.26 1.5-3.08 2.34-6.54 2.34-10.2 0-12.92-10.52-23.44-23.44-23.44h-19.3c-23.96 0-43.46-19.5-43.46-43.46a43.366 43.366 0 0 1 12.76-30.74c7.78-7.78 18.5-12.6 30.34-12.7v-27.58c0-5.54 4.48-10 10-10s10 4.46 10 10v27.56h33.1c5.52 0 10 4.48 10 10 0 5.54-4.48 10-10 10h-52.74c-6.46 0-12.32 2.64-16.56 6.86z m35.86 60.06h-12.54l33.64 33.64c1.5-3.08 2.34-6.54 2.34-10.2 0-12.92-10.52-23.44-23.44-23.44z m0 0h-12.54l33.64 33.64c1.5-3.08 2.34-6.54 2.34-10.2 0-12.92-10.52-23.44-23.44-23.44z" fill="#F9C139" p-id="1877"></path><path d="M677.58 193.38c-6.42-7.66-13.04-15.56-16.04-24.8-3.12-9.64-2.44-20.22-1.78-30.44 0.7-10.72 1.36-20.84-2.68-26.38-4.1-5.64-14.02-8.16-24.5-10.8-9.88-2.5-20.08-5.08-28.2-10.98-8-5.82-13.54-14.66-18.9-23.22-5.78-9.24-11.26-17.98-18.06-20.18-1.2-0.4-2.5-0.58-4-0.58-6 0-13.52 3-21.48 6.16-9.62 3.84-19.6 7.82-29.94 7.82-10.36 0-20.32-3.98-29.96-7.82-7.96-3.16-15.48-6.16-21.48-6.16-1.5 0-2.8 0.18-4 0.58-6.8 2.2-12.26 10.94-18.06 20.18-5.36 8.54-10.9 17.4-18.9 23.22-8.1 5.9-18.3 8.48-28.18 10.96-10.5 2.66-20.4 5.16-24.52 10.82-4.02 5.54-3.36 15.66-2.68 26.4 0.66 10.22 1.36 20.78-1.78 30.42-3 9.24-9.62 17.16-16.02 24.8-7.08 8.44-13.76 16.4-13.76 23.8 0 7.38 6.68 15.36 13.76 23.8 6.4 7.64 13.02 15.54 16.02 24.8 3.14 9.64 2.44 20.2 1.78 30.42-0.68 10.72-1.34 20.84 2.68 26.38 4.12 5.66 14.02 8.16 24.52 10.82 9.86 2.5 20.08 5.08 28.18 10.98 8 5.82 13.54 14.66 18.9 23.22 5.8 9.24 11.26 17.96 18.06 20.18 1.2 0.38 2.5 0.58 4 0.58 6-0.02 13.52-3 21.48-6.18 5.44-2.16 10.98-4.34 16.62-5.84 0.08-0.04 0.16-0.06 0.24-0.08 4.3-1.12 8.66-1.88 13.1-1.88 0.64 0 1.28 0.06 1.94 0.08h0.08c0.08 0 0.16 0.02 0.24 0.02 3.7 0.2 7.36 0.86 10.98 1.82h0.02c5.66 1.52 11.24 3.72 16.68 5.88 7.96 3.18 15.48 6.16 21.48 6.16 1.5 0 2.8-0.18 4-0.56 6.8-2.22 12.26-10.94 18.06-20.18 5.36-8.56 10.9-17.4 18.9-23.22 8.1-5.9 18.32-8.48 28.2-10.98 10.48-2.66 20.4-5.16 24.5-10.82 4.04-5.54 3.38-15.66 2.68-26.38-0.66-10.22-1.34-20.8 1.78-30.42 3-9.26 9.62-17.16 16.04-24.8 7.06-8.44 13.74-16.42 13.74-23.8 0-7.4-6.68-15.36-13.74-23.8zM512 347.48c-71.86 0-130.3-58.46-130.3-130.3 0-71.86 58.44-130.32 130.3-130.32 71.84 0 130.3 58.46 130.3 130.32 0 71.84-58.46 130.3-130.3 130.3z" fill="#E1E1E5" p-id="1878"></path><path d="M454.5 367.6c-5.36-8.56-10.9-17.4-18.9-23.22-8.1-5.9-18.32-8.48-28.18-10.98-10.5-2.66-20.4-5.16-24.52-10.82-4.02-5.54-3.36-15.66-2.68-26.38 0.66-10.22 1.36-20.78-1.78-30.42-3-9.26-9.62-17.16-16.02-24.8-7.08-8.44-13.76-16.42-13.76-23.8 0-7.4 6.68-15.36 13.76-23.8 6.4-7.64 13.02-15.56 16.02-24.8 3.14-9.64 2.44-20.2 1.78-30.42-0.68-10.74-1.34-20.86 2.68-26.4 4.12-5.66 14.02-8.16 24.52-10.82 9.88-2.48 20.08-5.06 28.18-10.96 8-5.82 13.54-14.68 18.9-23.22 5.06-8.06 9.86-15.74 15.52-19.02-3.42-1.06-6.62-1.74-9.46-1.74-1.5 0-2.8 0.18-4 0.58-6.8 2.2-12.26 10.94-18.06 20.18-5.36 8.54-10.9 17.4-18.9 23.22-8.1 5.9-18.3 8.48-28.18 10.96-10.5 2.66-20.4 5.16-24.52 10.82-4.02 5.54-3.36 15.66-2.68 26.4 0.66 10.22 1.36 20.78-1.78 30.42-3 9.24-9.62 17.16-16.02 24.8-7.08 8.44-13.76 16.4-13.76 23.8 0 7.38 6.68 15.36 13.76 23.8 6.4 7.64 13.02 15.54 16.02 24.8 3.14 9.64 2.44 20.2 1.78 30.42-0.68 10.72-1.34 20.84 2.68 26.38 4.12 5.66 14.02 8.16 24.52 10.82 9.86 2.5 20.08 5.08 28.18 10.98 8 5.82 13.54 14.66 18.9 23.22 5.8 9.24 11.26 17.96 18.06 20.18 1.2 0.38 2.5 0.58 4 0.58 2.84 0 6.04-0.68 9.46-1.74-5.66-3.3-10.46-10.96-15.52-19.02z" fill="#FFFFFF" opacity=".2" p-id="1879"></path><path d="M677.58 193.38c-6.42-7.66-13.04-15.56-16.04-24.8-3.12-9.64-2.44-20.22-1.78-30.44 0.7-10.72 1.36-20.84-2.68-26.38-4.1-5.64-14.02-8.16-24.5-10.8-9.88-2.5-20.08-5.08-28.2-10.98-8-5.82-13.54-14.66-18.9-23.22-5.78-9.24-11.26-17.98-18.06-20.18-1.2-0.4-2.5-0.58-4-0.58-2.84 0-6.02 0.68-9.44 1.74 5.64 3.28 10.46 10.96 15.5 19.02 5.36 8.56 10.9 17.4 18.9 23.22 8.12 5.9 18.32 8.48 28.2 10.98 10.48 2.64 20.4 5.16 24.5 10.8 4.04 5.54 3.38 15.66 2.68 26.38-0.66 10.22-1.34 20.8 1.78 30.44 3 9.24 9.62 17.14 16.04 24.8 7.06 8.44 13.74 16.4 13.74 23.8 0 7.38-6.68 15.36-13.74 23.8-6.42 7.64-13.04 15.54-16.04 24.8-3.12 9.62-2.44 20.2-1.78 30.42 0.7 10.72 1.36 20.84-2.68 26.38-4.1 5.66-14.02 8.16-24.5 10.82-9.88 2.5-20.1 5.08-28.2 10.98-8 5.82-13.54 14.66-18.9 23.22-5.06 8.06-9.86 15.72-15.52 19.02 3.42 1.06 6.62 1.72 9.46 1.72 1.5 0 2.8-0.18 4-0.56 6.8-2.22 12.26-10.94 18.06-20.18 5.36-8.56 10.9-17.4 18.9-23.22 8.1-5.9 18.32-8.48 28.2-10.98 10.48-2.66 20.4-5.16 24.5-10.82 4.04-5.54 3.38-15.66 2.68-26.38-0.66-10.22-1.34-20.8 1.78-30.42 3-9.26 9.62-17.16 16.04-24.8 7.06-8.44 13.74-16.42 13.74-23.8 0-7.4-6.68-15.36-13.74-23.8z" opacity=".2" p-id="1880"></path><path d="M459.62 408.32l-105.98 89.5-2.52-78.24c-0.02-0.24-0.08-0.48-0.1-0.72-0.04-0.38-0.08-0.76-0.16-1.12-0.06-0.3-0.16-0.58-0.26-0.86-0.1-0.34-0.2-0.68-0.34-1-0.12-0.26-0.26-0.5-0.4-0.74-0.18-0.34-0.34-0.66-0.56-0.96-0.14-0.18-0.3-0.36-0.44-0.54a9.2 9.2 0 0 0-0.82-0.94c-0.14-0.12-0.3-0.24-0.44-0.36-0.34-0.3-0.7-0.58-1.08-0.84-0.16-0.1-0.32-0.16-0.48-0.26-0.4-0.22-0.8-0.44-1.24-0.62-0.22-0.08-0.46-0.14-0.7-0.22-0.32-0.1-0.64-0.24-1-0.3l-76.7-15.58 80.26-67.8c1 2.66 2.32 5.24 4.08 7.64 8.36 11.5 22.92 15.18 35.78 18.42 8.4 2.14 16.34 4.14 21.32 7.76 4.86 3.56 9.16 10.42 13.72 17.68 7.08 11.3 15.12 24.12 28.82 28.58 2.9 0.94 6 1.42 9.24 1.52z" fill="#EC7063" p-id="1881"></path><path d="M459.62 408.32l-20.88 17.64c-7.84-6.04-13.42-14.96-18.52-23.08-4.56-7.26-8.86-14.12-13.72-17.68-4.98-3.62-12.92-5.62-21.32-7.76-12.86-3.24-27.42-6.92-35.78-18.42-1.76-2.4-3.08-4.98-4.08-7.64l-56.46 47.7-22.46-4.56 80.26-67.8c1 2.66 2.32 5.24 4.08 7.64 8.36 11.5 22.92 15.18 35.78 18.42 8.4 2.14 16.34 4.14 21.32 7.76 4.86 3.56 9.16 10.42 13.72 17.68 7.08 11.3 15.12 24.12 28.82 28.58 2.9 0.94 6 1.42 9.24 1.52z" opacity=".2" p-id="1882"></path><path d="M757.58 394.52l-76.72 15.58c-0.26 0.06-0.48 0.16-0.74 0.24-0.36 0.1-0.72 0.18-1.06 0.32-0.24 0.1-0.44 0.22-0.66 0.34-0.38 0.18-0.74 0.36-1.1 0.58-0.16 0.12-0.3 0.24-0.44 0.36-0.38 0.28-0.74 0.56-1.06 0.88-0.12 0.12-0.2 0.24-0.3 0.34-0.34 0.36-0.64 0.74-0.92 1.14-0.1 0.14-0.16 0.28-0.24 0.42-0.24 0.4-0.48 0.8-0.66 1.24-0.1 0.22-0.16 0.48-0.24 0.7-0.12 0.36-0.26 0.72-0.34 1.1-0.08 0.36-0.1 0.72-0.14 1.1-0.02 0.24-0.1 0.48-0.1 0.72l-2.52 78.24-105.98-89.5c3.24-0.08 6.34-0.58 9.24-1.52 13.7-4.46 21.74-17.28 28.82-28.58 4.56-7.26 8.86-14.12 13.74-17.68 4.98-3.62 12.92-5.62 21.32-7.76 12.84-3.24 27.4-6.92 35.78-18.42 1.74-2.4 3.06-4.98 4.08-7.64l80.24 67.8z" fill="#EC7063" p-id="1883"></path><path d="M622.3 217.18c0 17.4-4.04 33.86-11.26 48.5a110.48 110.48 0 0 1-16.36 24.42 110.212 110.212 0 0 1-20.8 18.34 107.554 107.554 0 0 1-12.46 7.32 108.888 108.888 0 0 1-39.64 11.28c-3.22 0.3-6.48 0.44-9.78 0.44-60.82 0-110.3-49.48-110.3-110.3 0-3.3 0.14-6.56 0.44-9.78 1.24-14.16 5.18-27.54 11.26-39.66 2.18-4.32 4.64-8.48 7.34-12.44 5.22-7.7 11.38-14.68 18.34-20.8A109.744 109.744 0 0 1 512 106.86c1.82 0 3.62 0.04 5.42 0.14 56.52 2.74 101.98 48.22 104.74 104.74 0.1 1.8 0.14 3.62 0.14 5.44z" fill="#F9C139" p-id="1884"></path><path d="M512 685.12c68.418 0 124.08 55.662 124.08 124.08s-55.662 124.08-124.08 124.08-124.08-55.662-124.08-124.08 55.662-124.08 124.08-124.08m-18.02 39.858c-24.386 4.01-43.1 25.312-43.1 50.762 0 28.376 23.084 51.46 51.46 51.46h19.3c8.514 0 15.44 6.926 15.44 15.44 0 8.524-6.926 15.46-15.44 15.46H468.88c-9.926 0-18 8.074-18 18s8.074 18 18 18h25.1v19.58c0 9.926 8.074 18 18 18s18-8.074 18-18v-20.262c24.386-4.028 43.1-25.336 43.1-50.778 0-28.364-23.076-51.44-51.44-51.44h-19.3c-8.524 0-15.46-6.936-15.46-15.46s6.936-15.46 15.46-15.46h52.74c9.926 0 18-8.074 18-18s-8.074-18-18-18h-25.1v-19.56c0-9.926-8.074-18-18-18s-18 8.074-18 18v20.258M512 677.12c-72.84 0-132.08 59.24-132.08 132.08 0 72.82 59.24 132.08 132.08 132.08 72.82 0 132.08-59.26 132.08-132.08 0-72.84-59.26-132.08-132.08-132.08z m-9.66 142.08c-23.96 0-43.46-19.5-43.46-43.46 0-23.84 19.3-43.26 43.1-43.44v-27.58c0-5.54 4.48-10 10-10s10 4.46 10 10v27.56h33.1c5.52 0 10 4.48 10 10 0 5.54-4.48 10-10 10h-52.74c-12.94 0-23.46 10.54-23.46 23.46 0 12.94 10.52 23.46 23.46 23.46h19.3c23.94 0 43.44 19.48 43.44 43.44 0 23.86-19.3 43.26-43.1 43.46v27.58c0 5.52-4.48 10-10 10s-10-4.48-10-10v-27.58h-33.1c-5.52 0-10-4.48-10-10s4.48-10 10-10h52.76c12.92 0 23.44-10.52 23.44-23.46 0-12.92-10.52-23.44-23.44-23.44h-19.3zM512 114.86c56.408 0 102.3 45.9 102.3 102.32 0 56.408-45.892 102.3-102.3 102.3s-102.3-45.892-102.3-102.3c0-56.42 45.892-102.32 102.3-102.32m0-8c-60.82 0-110.3 49.48-110.3 110.32 0 60.82 49.48 110.3 110.3 110.3s110.3-49.48 110.3-110.3c0-60.84-49.48-110.32-110.3-110.32zM564.36 408.32l20.88 17.64c7.84-6.04 13.42-14.96 18.52-23.08 4.56-7.26 8.86-14.12 13.72-17.68 4.98-3.62 12.92-5.62 21.32-7.76 12.86-3.24 27.42-6.92 35.78-18.42 1.76-2.4 3.08-4.98 4.08-7.64l56.46 47.7 22.46-4.56-80.26-67.8c-1 2.66-2.32 5.24-4.08 7.64-8.36 11.5-22.92 15.18-35.78 18.42-8.4 2.14-16.34 4.14-21.32 7.76-4.86 3.56-9.16 10.42-13.72 17.68-7.08 11.3-15.12 24.12-28.82 28.58-2.9 0.94-6 1.42-9.24 1.52z" opacity=".2" p-id="1885"></path><path d="M501.98 886.1v24.88l-24.88-24.88zM502.94 866.1h-34.06c-3.22 0-6.08 1.52-7.9 3.88l-79.7-79.7c1.78-12.48 5.32-24.38 10.36-35.5l111.3 111.32zM566.38 929.54c-11.1 5.04-23 8.6-35.46 10.38l-16.54-16.54a9.98 9.98 0 0 0 7.6-9.7v-27.58c0.32 0 0.62 0 0.94-0.04l43.46 43.48zM542.74 852.84c-3.8 7.84-11.82 13.26-21.1 13.26h-0.86l-123.08-123.06c4.26-7.32 9.18-14.18 14.72-20.52l46.92 46.92a43.66 43.66 0 0 0-0.46 6.3c0 23.96 19.5 43.46 43.46 43.46h6.76l33.64 33.64zM598.68 908.76a130.972 130.972 0 0 1-20.54 14.7l-40.46-40.46c7.98-3.16 14.8-8.64 19.64-15.6l41.36 41.36zM501.98 732.3c-11.84 0.1-22.56 4.92-30.34 12.7l-40.32-40.32c11.36-8.8 24.2-15.78 38.06-20.52l32.6 32.6v15.54zM637.02 851.8a131.814 131.814 0 0 1-20.52 38.06l-51.64-51.64c-2.08-20.44-18.38-36.72-38.8-38.8l-40.28-40.28a23.44 23.44 0 0 1 16.56-6.86h35.16l99.52 99.52z" fill="#FFFFFF" opacity=".4" p-id="1886"></path><path d="M626.27 819.2a10 10 0 0 1-10-10c0-57.488-46.772-104.26-104.26-104.26a10 10 0 1 1 0-20c68.518 0 124.26 55.742 124.26 124.26a10 10 0 0 1-10 10z" fill="#FFFFFF" opacity=".8" p-id="1887"></path><path d="M359.92 809.2c0 10.9 1.16 21.54 3.36 31.8l-20.54-20.54c-0.3-4.02-0.44-8.08-0.44-12.16 0-17.62 2.72-34.76 7.82-50.94l14.46 14.46a151.544 151.544 0 0 0-4.66 37.38zM562.94 970.18A168.86 168.86 0 0 1 512 978c-4.08 0-8.14-0.14-12.16-0.44l-19.64-19.64c10.26 2.2 20.9 3.36 31.8 3.36 12.9 0 25.42-1.62 37.38-4.66l13.56 13.56zM391.24 716.88c-8.04 10.46-14.74 22-19.84 34.36l-13.7-13.7c5.52-12.02 12.4-23.32 20.5-33.7l13.04 13.04zM616.38 942.02a168.85 168.85 0 0 1-33.68 20.52l-12.74-12.74c12.36-5.12 23.9-11.8 34.36-19.84l12.06 12.06zM481.14 660.26c-22.86 4.72-43.86 14.6-61.72 28.34l-13.14-13.14a169.036 169.036 0 0 1 51.06-27.88 9.962 9.962 0 0 0 5.84-5.28l17.96 17.96zM675.32 854.44a168.86 168.86 0 0 1-30.6 59.46l-12.14-12.14a151.168 151.168 0 0 0 28.34-61.72l14.4 14.4z" fill="#FFFFFF" opacity=".4" p-id="1888"></path><path d="M561.42 315.76a108.888 108.888 0 0 1-39.64 11.28l-119.64-119.64c1.24-14.16 5.18-27.54 11.26-39.66l148.02 148.02zM594.68 290.1a110.212 110.212 0 0 1-20.8 18.34l-153.14-153.14c5.22-7.7 11.38-14.68 18.34-20.8l155.6 155.6zM622.3 217.18c0 17.4-4.04 33.86-11.26 48.5l-147.56-147.56a109.75 109.75 0 0 1 53.94-11.12l104.74 104.74c0.1 1.8 0.14 3.62 0.14 5.44z" fill="#FFFFFF" opacity=".4" p-id="1889"></path></svg>