<?xml version="1.0" standalone="no"?><!DOCTYPE svg PUBLIC "-//W3C//DTD SVG 1.1//EN" "http://www.w3.org/Graphics/SVG/1.1/DTD/svg11.dtd"><svg t="1583416114228" class="icon" viewBox="0 0 1024 1024" version="1.1" xmlns="http://www.w3.org/2000/svg" p-id="15862" id="mx_n_1583416114229" data-spm-anchor-id="a313x.7781069.0.i5" xmlns:xlink="http://www.w3.org/1999/xlink" width="200" height="200"><defs><style type="text/css"></style></defs><path d="M789.062098 563.634524l0 265.174187c-34.401153-13.806373-73.852618-20.791545-117.665717-20.791545-107.269944 0-209.456781 41.123971-240.152186 54.66799l0-196.43747 14.298287 15.741233 0-295.115324c57.849031-48.633851 128.750168-73.55747 211.162082-73.55747 9.608711 0 18.823891 0.426325 27.842306 1.049416l23.349496-22.30008c-15.806821-1.836477-32.958207-3.01707-51.224596-3.01707-89.528263 0-166.693098 27.284804-229.494059 81.132938C364.409544 316.333195 287.277502 289.081185 197.683651 289.081185c-83.6253 0-146.295084 24.366117-148.918623 25.349944L41.058383 317.513787l0 49.420913C15.741233 371.65707 0 380.117982 0 393.989944c0 72.016141 0 509.130504 0 509.130504l116.845861 0-37.647782-79.099696c-4.623987 1.574123-9.411946 2.918687-13.839167 4.689576L65.358911 334.33723c18.692714-6.230905 69.654956-20.955516 132.357534-20.955516 82.477502 0 153.31305 24.923619 211.194876 73.55747l0 295.115324 14.265492-15.741233 0 196.66703c-0.459119-0.163971 0.262354 59.128006 0.262354 59.128006 21.644195 3.01707 44.895308-7.345909 57.881825-18.955068l365.557342 0c0 0 0-389.661105 0-379.101361C838.548599 540.481793 789.062098 563.634524 789.062098 563.634524z" p-id="15863" data-spm-anchor-id="a313x.7781069.0.i6" class=""></path><path d="M998.420496 40.763235c-69.884516 59.947862-297.476509 259.205637-293.114876 303.412266l0.295148 2.820304 10.199007 13.511225-15.905204 0.032794-2.721922 0.163971c-13.93755 2.361185-39.123523 43.485156-47.322082 77.19763-9.477534 39.189111 0 70.704371 27.350392 91.167974 1.606918 1.147798 3.312218 2.16442 4.853547 3.246629L669.002402 550.024916l-21.283459-14.560641-8.690472 12.592986 20.922722 14.298287-97.890793 132.751065 45.944724-25.874652 68.703923-95.431225 15.314908 10.428567 8.59209-12.592986-14.986966-10.264596 14.462258-20.037278c16.397118 6.034139 34.794684 7.608263 54.504019 4.328839 43.649127-7.345909 85.396189-36.893515 92.21739-53.159456 2.033243-4.95193 1.344564-8.788855 0.196765-11.3796l-3.148247-11.445188 11.609159 3.443395 5.148695 0.22956c9.575917-1.574123 22.595228-3.804131 90.840032-216.048423 32.794235-102.186837 62.833755-205.193531 63.096109-206.242946l9.411946-32.269528L998.420496 40.763235zM856.847782 452.658831l-41.779856-12.363427 12.625781 45.780753c-5.968551 9.149592-39.02514 33.614091-76.312186 39.87779-14.199904 2.426773-27.088038 1.574123-38.926757-1.770889l0.459119-0.590296 151.83731-235.954524-3.574572-1.93486-164.364708 226.673755-2.656333 3.607366c-1.639712-1.016621-3.4106-1.770889-4.919135-2.885893-15.937998-11.904307-23.546261-28.760544-22.791994-50.142386 1.344564-36.598367 26.628919-75.066005 35.024243-82.346325l54.340048-0.22956-30.236285-40.205733c5.148695-23.054347 90.413707-109.073627 192.108631-201.356605l6.919584 40.894412 33.581297-9.838271C915.28711 308.888903 872.752986 432.916701 856.847782 452.658831zM962.805957 154.559231l-27.678335 8.100176-5.80458-34.466741c18.463155-16.659472 37.385428-33.417326 56.471673-50.011209C978.252042 103.695372 970.643779 129.340464 962.805957 154.559231z" p-id="15864"></path><path d="M292.393403 103.859343l0 137.079904c-0.065588 1.639712-0.360737 16.200352 9.346357 26.235388 5.509432 5.706197 13.216077 8.788855 22.30008 8.788855l213.916797 0c9.346357 0 17.348151-3.115452 23.054347-9.051209 9.969448-10.29739 9.674299-25.284355 9.608711-26.628919l0-136.424019-58.964035 0L511.655661 86.281633l17.053002 0L528.708663 62.866549l-36.172042 0 9.346357-60.997278-133.40695 0 9.379151 60.997278L341.715933 62.866549l0 23.415084 18.823891 0 0 17.643299L292.393403 103.859343 292.393403 103.859343zM553.796253 240.512922c0 2.623539-0.688679 10.330184-4.984724 14.691817-2.525156 2.55795-6.034139 3.804131-10.822098 3.804131L324.03984 259.008871c-4.460016 0-7.73944-1.180592-10.06783-3.541777C309.938319 251.400608 309.184051 243.989111 309.282434 241.26719L309.282434 231.199359l244.513819 0L553.796253 240.512922zM529.134988 205.65265l0 8.001793-195.256878 0L333.87811 205.65265 529.134988 205.65265zM368.148086 195.912762 368.148086 187.878175l130.193114 0 0 8.034588L368.148086 195.912762 368.148086 195.912762zM377.428855 120.781169 377.428855 86.281633l117.30498 0 0 34.499536 59.062418 0 0 42.075004L309.282434 162.856173 309.282434 120.781169 377.428855 120.781169z" p-id="15865"></path><path d="M267.240224 596.363171 187.386261 596.363171 187.386261 764.466421 187.386261 800.376109 187.386261 835.728295 160.494988 780.699568 85.199424 780.470008 116.091593 843.894059 115.894828 843.894059 135.73534 884.230969 138.293291 889.412458 138.326085 889.412458 187.386261 988.61502 220.44285 988.61502 220.44285 1022.130729 368.935148 1022.130729 368.935148 988.61502 402.024532 988.61502 402.024532 835.269175 267.240224 764.466421Z" p-id="15866"></path></svg>