<?xml version="1.0" standalone="no"?><svg xmlns="http://www.w3.org/2000/svg" viewBox="0 0 1440 320"><path fill="#0099ff" fill-opacity="1" d="M0,96L6.2,122.7C12.3,149,25,203,37,234.7C49.2,267,62,277,74,250.7C86.2,224,98,160,111,122.7C123.1,85,135,75,148,80C160,85,172,107,185,149.3C196.9,192,209,256,222,272C233.8,288,246,256,258,208C270.8,160,283,96,295,69.3C307.7,43,320,53,332,96C344.6,139,357,213,369,229.3C381.5,245,394,203,406,208C418.5,213,431,267,443,266.7C455.4,267,468,213,480,186.7C492.3,160,505,160,517,165.3C529.2,171,542,181,554,197.3C566.2,213,578,235,591,218.7C603.1,203,615,149,628,128C640,107,652,117,665,112C676.9,107,689,85,702,85.3C713.8,85,726,107,738,144C750.8,181,763,235,775,261.3C787.7,288,800,288,812,277.3C824.6,267,837,245,849,224C861.5,203,874,181,886,165.3C898.5,149,911,139,923,133.3C935.4,128,948,128,960,133.3C972.3,139,985,149,997,133.3C1009.2,117,1022,75,1034,69.3C1046.2,64,1058,96,1071,96C1083.1,96,1095,64,1108,80C1120,96,1132,160,1145,197.3C1156.9,235,1169,245,1182,234.7C1193.8,224,1206,192,1218,165.3C1230.8,139,1243,117,1255,128C1267.7,139,1280,181,1292,192C1304.6,203,1317,181,1329,197.3C1341.5,213,1354,267,1366,256C1378.5,245,1391,171,1403,160C1415.4,149,1428,203,1434,229.3L1440,256L1440,320L1433.8,320C1427.7,320,1415,320,1403,320C1390.8,320,1378,320,1366,320C1353.8,320,1342,320,1329,320C1316.9,320,1305,320,1292,320C1280,320,1268,320,1255,320C1243.1,320,1231,320,1218,320C1206.2,320,1194,320,1182,320C1169.2,320,1157,320,1145,320C1132.3,320,1120,320,1108,320C1095.4,320,1083,320,1071,320C1058.5,320,1046,320,1034,320C1021.5,320,1009,320,997,320C984.6,320,972,320,960,320C947.7,320,935,320,923,320C910.8,320,898,320,886,320C873.8,320,862,320,849,320C836.9,320,825,320,812,320C800,320,788,320,775,320C763.1,320,751,320,738,320C726.2,320,714,320,702,320C689.2,320,677,320,665,320C652.3,320,640,320,628,320C615.4,320,603,320,591,320C578.5,320,566,320,554,320C541.5,320,529,320,517,320C504.6,320,492,320,480,320C467.7,320,455,320,443,320C430.8,320,418,320,406,320C393.8,320,382,320,369,320C356.9,320,345,320,332,320C320,320,308,320,295,320C283.1,320,271,320,258,320C246.2,320,234,320,222,320C209.2,320,197,320,185,320C172.3,320,160,320,148,320C135.4,320,123,320,111,320C98.5,320,86,320,74,320C61.5,320,49,320,37,320C24.6,320,12,320,6,320L0,320Z"></path></svg>