<?xml version="1.0" standalone="no"?><svg xmlns="http://www.w3.org/2000/svg" viewBox="0 0 1440 320"><path fill="#00cba9" fill-opacity="1" d="M0,96L36.9,256L73.8,288L110.8,96L147.7,64L184.6,128L221.5,320L258.5,224L295.4,32L332.3,64L369.2,288L406.2,160L443.1,320L480,160L516.9,160L553.8,192L590.8,256L627.7,96L664.6,128L701.5,64L738.5,128L775.4,288L812.3,288L849.2,224L886.2,160L923.1,128L960,128L996.9,160L1033.8,32L1070.8,128L1107.7,32L1144.6,224L1181.5,256L1218.5,160L1255.4,96L1292.3,224L1329.2,160L1366.2,320L1403.1,96L1440,256L1440,320L1403.1,320L1366.2,320L1329.2,320L1292.3,320L1255.4,320L1218.5,320L1181.5,320L1144.6,320L1107.7,320L1070.8,320L1033.8,320L996.9,320L960,320L923.1,320L886.2,320L849.2,320L812.3,320L775.4,320L738.5,320L701.5,320L664.6,320L627.7,320L590.8,320L553.8,320L516.9,320L480,320L443.1,320L406.2,320L369.2,320L332.3,320L295.4,320L258.5,320L221.5,320L184.6,320L147.7,320L110.8,320L73.8,320L36.9,320L0,320Z"></path></svg>